<?xml version="1.0" encoding="UTF-8"?>
<svg id="_图层_1" data-name="图层 1" xmlns="http://www.w3.org/2000/svg" version="1.1" viewBox="0 0 1920 1920">
  <defs>
    <style>
      .cls-1 {
        fill: #172a88;
      }

      .cls-1, .cls-2, .cls-3, .cls-4 {
        stroke-width: 0px;
      }

      .cls-1, .cls-2, .cls-4 {
        opacity: .7;
      }

      .cls-2 {
        fill: #006934;
      }

      .cls-3 {
        fill: #fff;
      }

      .cls-4 {
        fill: #13ae67;
      }
    </style>
  </defs>
  <polyline class="cls-3" points="0 0 0 0 0 0"/>
  <path class="cls-3" d="M1149.7,1434.65"/>
  <path class="cls-4" d="M714.12,20.52C276.15,137.33,19.09,528.91,19.09,993.99s313.29,784.36,751.26,901.18c-63.01-280.03,242.34-379.33,242.34-754.5S508.62,286.13,714.12,20.52Z"/>
  <path class="cls-2" d="M1657.48,512.94c-322.55-65.87-709.96,107.96-938.63,446.07-228.67,338.11-156.72,700.44,50.96,936.16,99.54-225.27,333.2-192.34,517.66-465.08,184.46-272.74,115.03-794.8,370.01-917.14Z"/>
  <path class="cls-1" d="M1902.45,1436.52c-156.26-161.61-427.73-137.23-711.5-29.7-283.77,107.53-435.11,271.73-421.4,487.35,189.97-54.25,302.81-27.62,501.24-139.28,213.49-120.13,296.48-301.51,631.66-318.37Z"/>
</svg>